<mxfile host="65bd71144e">
    <diagram id="y18GT9JZLWbJ45iEPLDk" name="Page-1">
        <mxGraphModel dx="1787" dy="1579" grid="1" gridSize="10" guides="1" tooltips="1" connect="1" arrows="1" fold="1" page="1" pageScale="1" pageWidth="827" pageHeight="1169" math="0" shadow="0">
            <root>
                <mxCell id="0"/>
                <mxCell id="1" parent="0"/>
                <mxCell id="3" value="&lt;font style=&quot;font-size: 18px&quot;&gt;Bill&lt;/font&gt;" style="whiteSpace=wrap;html=1;align=center;" parent="1" vertex="1">
                    <mxGeometry x="330" y="360" width="100" height="40" as="geometry"/>
                </mxCell>
                <mxCell id="4" value="&lt;font style=&quot;font-size: 18px&quot;&gt;Booth&lt;/font&gt;" style="whiteSpace=wrap;html=1;align=center;" parent="1" vertex="1">
                    <mxGeometry x="210" y="630" width="100" height="40" as="geometry"/>
                </mxCell>
                <mxCell id="5" value="&lt;font style=&quot;font-size: 18px&quot;&gt;Restaurant&lt;/font&gt;" style="whiteSpace=wrap;html=1;align=center;" parent="1" vertex="1">
                    <mxGeometry x="620" y="100" width="100" height="40" as="geometry"/>
                </mxCell>
                <mxCell id="7" value="contains" style="shape=rhombus;perimeter=rhombusPerimeter;whiteSpace=wrap;html=1;align=center;fontSize=18;" parent="1" vertex="1">
                    <mxGeometry x="200" y="330" width="120" height="60" as="geometry"/>
                </mxCell>
                <mxCell id="8" value="process" style="shape=rhombus;perimeter=rhombusPerimeter;whiteSpace=wrap;html=1;align=center;fontSize=18;" parent="1" vertex="1">
                    <mxGeometry x="525" y="300" width="120" height="60" as="geometry"/>
                </mxCell>
                <mxCell id="9" value="generate" style="shape=rhombus;perimeter=rhombusPerimeter;whiteSpace=wrap;html=1;align=center;fontSize=18;" parent="1" vertex="1">
                    <mxGeometry x="150" y="460" width="120" height="60" as="geometry"/>
                </mxCell>
                <mxCell id="10" value="contains" style="shape=rhombus;perimeter=rhombusPerimeter;whiteSpace=wrap;html=1;align=center;fontSize=18;" parent="1" vertex="1">
                    <mxGeometry x="640" y="450" width="120" height="60" as="geometry"/>
                </mxCell>
                <mxCell id="11" value="&lt;font style=&quot;font-size: 14px&quot;&gt;BillAmount&lt;/font&gt;" style="ellipse;whiteSpace=wrap;html=1;align=center;fontSize=18;" parent="1" vertex="1">
                    <mxGeometry x="330" y="290" width="80" height="40" as="geometry"/>
                </mxCell>
                <mxCell id="12" value="&lt;font style=&quot;font-size: 14px&quot;&gt;&lt;u&gt;&lt;b&gt;Bill_ID&lt;/b&gt;&lt;/u&gt;&lt;/font&gt;" style="ellipse;whiteSpace=wrap;html=1;align=center;fontSize=18;" parent="1" vertex="1">
                    <mxGeometry x="410" y="270" width="80" height="40" as="geometry"/>
                </mxCell>
                <mxCell id="13" value="&lt;font style=&quot;font-size: 14px&quot;&gt;MaxCapacity&lt;/font&gt;" style="ellipse;whiteSpace=wrap;html=1;align=center;fontSize=18;" parent="1" vertex="1">
                    <mxGeometry x="800" y="80" width="90" height="40" as="geometry"/>
                </mxCell>
                <mxCell id="14" value="&lt;font style=&quot;font-size: 14px&quot;&gt;&lt;u&gt;&lt;b&gt;RestaurandID&lt;/b&gt;&lt;/u&gt;&lt;/font&gt;" style="ellipse;whiteSpace=wrap;html=1;align=center;fontSize=18;" parent="1" vertex="1">
                    <mxGeometry x="590" y="20" width="100" height="40" as="geometry"/>
                </mxCell>
                <mxCell id="15" value="&lt;font style=&quot;font-size: 14px&quot;&gt;GranuityAmount&lt;/font&gt;" style="ellipse;whiteSpace=wrap;html=1;align=center;fontSize=18;" parent="1" vertex="1">
                    <mxGeometry x="340" y="450" width="110" height="40" as="geometry"/>
                </mxCell>
                <mxCell id="16" value="&lt;font style=&quot;font-size: 14px&quot;&gt;Bill_Date_time&lt;/font&gt;" style="ellipse;whiteSpace=wrap;html=1;align=center;fontSize=18;" parent="1" vertex="1">
                    <mxGeometry x="470" y="430" width="100" height="40" as="geometry"/>
                </mxCell>
                <mxCell id="27" value="" style="endArrow=none;html=1;rounded=0;fontSize=18;entryX=0.5;entryY=1;entryDx=0;entryDy=0;exitX=0;exitY=0;exitDx=0;exitDy=0;" parent="1" source="115" target="174" edge="1">
                    <mxGeometry relative="1" as="geometry">
                        <mxPoint x="412.1999999999998" y="112.88000000000034" as="sourcePoint"/>
                        <mxPoint x="385.1999999999998" y="59.88000000000011" as="targetPoint"/>
                    </mxGeometry>
                </mxCell>
                <mxCell id="30" value="" style="endArrow=none;html=1;rounded=0;fontSize=14;entryX=1;entryY=0.25;entryDx=0;entryDy=0;exitX=0;exitY=0.5;exitDx=0;exitDy=0;" parent="1" source="13" target="5" edge="1">
                    <mxGeometry relative="1" as="geometry">
                        <mxPoint x="330" y="340" as="sourcePoint"/>
                        <mxPoint x="490" y="340" as="targetPoint"/>
                    </mxGeometry>
                </mxCell>
                <mxCell id="31" value="" style="endArrow=none;html=1;rounded=0;fontSize=14;entryX=0.5;entryY=1;entryDx=0;entryDy=0;exitX=0.25;exitY=0;exitDx=0;exitDy=0;" parent="1" source="5" target="14" edge="1">
                    <mxGeometry relative="1" as="geometry">
                        <mxPoint x="330" y="340" as="sourcePoint"/>
                        <mxPoint x="490" y="340" as="targetPoint"/>
                    </mxGeometry>
                </mxCell>
                <mxCell id="32" value="" style="endArrow=none;html=1;rounded=0;fontSize=14;entryX=1;entryY=0.5;entryDx=0;entryDy=0;exitX=0.25;exitY=1;exitDx=0;exitDy=0;" parent="1" source="5" target="8" edge="1">
                    <mxGeometry relative="1" as="geometry">
                        <mxPoint x="330" y="340" as="sourcePoint"/>
                        <mxPoint x="490" y="340" as="targetPoint"/>
                    </mxGeometry>
                </mxCell>
                <mxCell id="33" value="1" style="resizable=0;html=1;align=right;verticalAlign=bottom;fontSize=14;" parent="32" connectable="0" vertex="1">
                    <mxGeometry x="1" relative="1" as="geometry">
                        <mxPoint x="-10" y="-10" as="offset"/>
                    </mxGeometry>
                </mxCell>
                <mxCell id="34" value="" style="endArrow=none;html=1;rounded=0;fontSize=14;entryX=0;entryY=0.5;entryDx=0;entryDy=0;exitX=1;exitY=0.5;exitDx=0;exitDy=0;" parent="1" source="3" target="8" edge="1">
                    <mxGeometry relative="1" as="geometry">
                        <mxPoint x="330" y="340" as="sourcePoint"/>
                        <mxPoint x="490" y="340" as="targetPoint"/>
                    </mxGeometry>
                </mxCell>
                <mxCell id="35" value="N" style="resizable=0;html=1;align=right;verticalAlign=bottom;fontSize=14;" parent="34" connectable="0" vertex="1">
                    <mxGeometry x="1" relative="1" as="geometry"/>
                </mxCell>
                <mxCell id="36" value="" style="endArrow=none;html=1;rounded=0;fontSize=14;entryX=0.5;entryY=0;entryDx=0;entryDy=0;exitX=0.5;exitY=1;exitDx=0;exitDy=0;" parent="1" source="137" target="7" edge="1">
                    <mxGeometry relative="1" as="geometry">
                        <mxPoint x="240" y="180" as="sourcePoint"/>
                        <mxPoint x="650" y="320" as="targetPoint"/>
                    </mxGeometry>
                </mxCell>
                <mxCell id="37" value="1" style="resizable=0;html=1;align=right;verticalAlign=bottom;fontSize=14;" parent="36" connectable="0" vertex="1">
                    <mxGeometry x="1" relative="1" as="geometry">
                        <mxPoint x="20" as="offset"/>
                    </mxGeometry>
                </mxCell>
                <mxCell id="38" value="" style="endArrow=none;html=1;rounded=0;fontSize=14;entryX=0.5;entryY=1;entryDx=0;entryDy=0;exitX=0;exitY=0.5;exitDx=0;exitDy=0;" parent="1" source="3" target="7" edge="1">
                    <mxGeometry relative="1" as="geometry">
                        <mxPoint x="430" y="320" as="sourcePoint"/>
                        <mxPoint x="530" y="320" as="targetPoint"/>
                    </mxGeometry>
                </mxCell>
                <mxCell id="39" value="M" style="resizable=0;html=1;align=right;verticalAlign=bottom;fontSize=14;" parent="38" connectable="0" vertex="1">
                    <mxGeometry x="1" relative="1" as="geometry">
                        <mxPoint x="40" y="10" as="offset"/>
                    </mxGeometry>
                </mxCell>
                <mxCell id="40" value="" style="endArrow=none;html=1;rounded=0;fontSize=14;entryX=0.5;entryY=1;entryDx=0;entryDy=0;" parent="1" source="3" target="11" edge="1">
                    <mxGeometry relative="1" as="geometry">
                        <mxPoint x="330" y="500" as="sourcePoint"/>
                        <mxPoint x="490" y="500" as="targetPoint"/>
                    </mxGeometry>
                </mxCell>
                <mxCell id="41" value="" style="endArrow=none;html=1;rounded=0;fontSize=14;entryX=0.5;entryY=1;entryDx=0;entryDy=0;exitX=0.75;exitY=0;exitDx=0;exitDy=0;" parent="1" source="3" target="12" edge="1">
                    <mxGeometry relative="1" as="geometry">
                        <mxPoint x="330" y="500" as="sourcePoint"/>
                        <mxPoint x="490" y="500" as="targetPoint"/>
                    </mxGeometry>
                </mxCell>
                <mxCell id="42" value="" style="endArrow=none;html=1;rounded=0;fontSize=14;entryX=0.5;entryY=1;entryDx=0;entryDy=0;exitX=0.5;exitY=0;exitDx=0;exitDy=0;" parent="1" source="15" target="3" edge="1">
                    <mxGeometry relative="1" as="geometry">
                        <mxPoint x="330" y="500" as="sourcePoint"/>
                        <mxPoint x="490" y="500" as="targetPoint"/>
                    </mxGeometry>
                </mxCell>
                <mxCell id="43" value="" style="endArrow=none;html=1;rounded=0;fontSize=14;entryX=0.5;entryY=0;entryDx=0;entryDy=0;exitX=0.75;exitY=1;exitDx=0;exitDy=0;" parent="1" source="3" target="16" edge="1">
                    <mxGeometry relative="1" as="geometry">
                        <mxPoint x="330" y="500" as="sourcePoint"/>
                        <mxPoint x="490" y="500" as="targetPoint"/>
                    </mxGeometry>
                </mxCell>
                <mxCell id="44" value="" style="endArrow=none;html=1;rounded=0;fontSize=14;" parent="1" target="10" edge="1">
                    <mxGeometry relative="1" as="geometry">
                        <mxPoint x="660" y="140" as="sourcePoint"/>
                        <mxPoint x="650" y="320" as="targetPoint"/>
                        <Array as="points"/>
                    </mxGeometry>
                </mxCell>
                <mxCell id="45" value="1" style="resizable=0;html=1;align=right;verticalAlign=bottom;fontSize=14;" parent="44" connectable="0" vertex="1">
                    <mxGeometry x="1" relative="1" as="geometry">
                        <mxPoint x="-10" y="-10" as="offset"/>
                    </mxGeometry>
                </mxCell>
                <mxCell id="46" value="" style="endArrow=none;html=1;rounded=0;fontSize=14;entryX=0.5;entryY=1;entryDx=0;entryDy=0;exitX=1;exitY=0.5;exitDx=0;exitDy=0;" parent="1" source="4" target="10" edge="1">
                    <mxGeometry relative="1" as="geometry">
                        <mxPoint x="424" y="350" as="sourcePoint"/>
                        <mxPoint x="530" y="320" as="targetPoint"/>
                        <Array as="points">
                            <mxPoint x="500" y="610"/>
                        </Array>
                    </mxGeometry>
                </mxCell>
                <mxCell id="47" value="N" style="resizable=0;html=1;align=right;verticalAlign=bottom;fontSize=14;" parent="46" connectable="0" vertex="1">
                    <mxGeometry x="1" relative="1" as="geometry">
                        <mxPoint x="-30" y="10" as="offset"/>
                    </mxGeometry>
                </mxCell>
                <mxCell id="48" value="" style="endArrow=none;html=1;rounded=0;fontSize=14;exitX=0;exitY=0.75;exitDx=0;exitDy=0;entryX=0.5;entryY=0;entryDx=0;entryDy=0;" parent="1" source="3" target="9" edge="1">
                    <mxGeometry relative="1" as="geometry">
                        <mxPoint x="670" y="150" as="sourcePoint"/>
                        <mxPoint x="688.3333333333333" y="470.83333333333326" as="targetPoint"/>
                        <Array as="points"/>
                    </mxGeometry>
                </mxCell>
                <mxCell id="49" value="M" style="resizable=0;html=1;align=right;verticalAlign=bottom;fontSize=14;" parent="48" connectable="0" vertex="1">
                    <mxGeometry x="1" relative="1" as="geometry">
                        <mxPoint x="10" y="-10" as="offset"/>
                    </mxGeometry>
                </mxCell>
                <mxCell id="50" value="" style="endArrow=none;html=1;rounded=0;fontSize=14;entryX=0.5;entryY=1;entryDx=0;entryDy=0;exitX=0.5;exitY=0;exitDx=0;exitDy=0;" parent="1" source="4" target="9" edge="1">
                    <mxGeometry relative="1" as="geometry">
                        <mxPoint x="680" y="160" as="sourcePoint"/>
                        <mxPoint x="698.3333333333333" y="480.83333333333326" as="targetPoint"/>
                        <Array as="points"/>
                    </mxGeometry>
                </mxCell>
                <mxCell id="51" value="1" style="resizable=0;html=1;align=right;verticalAlign=bottom;fontSize=14;" parent="50" connectable="0" vertex="1">
                    <mxGeometry x="1" relative="1" as="geometry">
                        <mxPoint x="-10" y="20" as="offset"/>
                    </mxGeometry>
                </mxCell>
                <mxCell id="52" value="&lt;font style=&quot;font-size: 14px&quot;&gt;&lt;b&gt;&lt;u&gt;BoothCode&lt;/u&gt;&lt;/b&gt;&lt;/font&gt;" style="ellipse;whiteSpace=wrap;html=1;align=center;fontSize=18;" parent="1" vertex="1">
                    <mxGeometry x="175" y="720" width="115" height="40" as="geometry"/>
                </mxCell>
                <mxCell id="53" value="&lt;font style=&quot;font-size: 14px&quot;&gt;BoothCapacity&lt;/font&gt;" style="ellipse;whiteSpace=wrap;html=1;align=center;fontSize=18;" parent="1" vertex="1">
                    <mxGeometry x="300" y="710" width="100" height="40" as="geometry"/>
                </mxCell>
                <mxCell id="54" value="&lt;font style=&quot;font-size: 14px&quot;&gt;SmokingSectionIndicator&lt;/font&gt;" style="ellipse;whiteSpace=wrap;html=1;align=center;fontSize=18;" parent="1" vertex="1">
                    <mxGeometry x="340" y="660" width="180" height="40" as="geometry"/>
                </mxCell>
                <mxCell id="55" value="" style="endArrow=none;html=1;rounded=0;fontSize=14;entryX=0;entryY=0.5;entryDx=0;entryDy=0;exitX=1;exitY=0.75;exitDx=0;exitDy=0;" parent="1" source="4" target="54" edge="1">
                    <mxGeometry relative="1" as="geometry">
                        <mxPoint x="460" y="500" as="sourcePoint"/>
                        <mxPoint x="620" y="500" as="targetPoint"/>
                    </mxGeometry>
                </mxCell>
                <mxCell id="56" value="" style="endArrow=none;html=1;rounded=0;fontSize=14;entryX=0.5;entryY=0;entryDx=0;entryDy=0;exitX=0.5;exitY=1;exitDx=0;exitDy=0;" parent="1" source="4" target="53" edge="1">
                    <mxGeometry relative="1" as="geometry">
                        <mxPoint x="460" y="500" as="sourcePoint"/>
                        <mxPoint x="620" y="500" as="targetPoint"/>
                    </mxGeometry>
                </mxCell>
                <mxCell id="57" value="" style="endArrow=none;html=1;rounded=0;fontSize=14;entryX=0.5;entryY=0;entryDx=0;entryDy=0;exitX=0.25;exitY=1;exitDx=0;exitDy=0;" parent="1" source="4" target="52" edge="1">
                    <mxGeometry relative="1" as="geometry">
                        <mxPoint x="460" y="500" as="sourcePoint"/>
                        <mxPoint x="620" y="500" as="targetPoint"/>
                    </mxGeometry>
                </mxCell>
                <mxCell id="58" value="" style="endArrow=none;html=1;rounded=0;entryX=0;entryY=1;entryDx=0;entryDy=0;" parent="1" target="119" edge="1">
                    <mxGeometry relative="1" as="geometry">
                        <mxPoint x="700" y="100" as="sourcePoint"/>
                        <mxPoint x="760.1199999999999" y="58.42000000000007" as="targetPoint"/>
                    </mxGeometry>
                </mxCell>
                <mxCell id="59" value="1" style="resizable=0;html=1;align=right;verticalAlign=bottom;" parent="58" connectable="0" vertex="1">
                    <mxGeometry x="1" relative="1" as="geometry">
                        <mxPoint x="-30" y="12" as="offset"/>
                    </mxGeometry>
                </mxCell>
                <mxCell id="60" value="" style="shape=link;html=1;rounded=0;exitX=1;exitY=0;exitDx=0;exitDy=0;entryX=0;entryY=0.5;entryDx=0;entryDy=0;" parent="1" source="119" target="120" edge="1">
                    <mxGeometry relative="1" as="geometry">
                        <mxPoint x="816.5" y="23.679999999999836" as="sourcePoint"/>
                        <mxPoint x="871.6999999999998" y="0.7999999999999545" as="targetPoint"/>
                    </mxGeometry>
                </mxCell>
                <mxCell id="61" value="N" style="resizable=0;html=1;align=right;verticalAlign=bottom;" parent="60" connectable="0" vertex="1">
                    <mxGeometry x="1" relative="1" as="geometry">
                        <mxPoint x="-43" y="10" as="offset"/>
                    </mxGeometry>
                </mxCell>
                <mxCell id="65" value="" style="endArrow=none;html=1;rounded=0;exitX=0.25;exitY=0;exitDx=0;exitDy=0;entryX=0.5;entryY=1;entryDx=0;entryDy=0;" parent="1" source="120" target="121" edge="1">
                    <mxGeometry relative="1" as="geometry">
                        <mxPoint x="884" y="-39.87999999999988" as="sourcePoint"/>
                        <mxPoint x="810" y="-70" as="targetPoint"/>
                    </mxGeometry>
                </mxCell>
                <mxCell id="66" value="&lt;font style=&quot;font-size: 14px&quot;&gt;DessertOfferedDateEnd&lt;/font&gt;" style="ellipse;whiteSpace=wrap;html=1;align=center;fontSize=18;" parent="1" vertex="1">
                    <mxGeometry x="430" y="-10" width="170" height="40" as="geometry"/>
                </mxCell>
                <mxCell id="67" value="" style="endArrow=none;html=1;rounded=0;fontSize=18;exitX=1;exitY=0;exitDx=0;exitDy=0;" parent="1" source="115" target="66" edge="1">
                    <mxGeometry relative="1" as="geometry">
                        <mxPoint x="460" y="115.00000000000023" as="sourcePoint"/>
                        <mxPoint x="375" y="50" as="targetPoint"/>
                    </mxGeometry>
                </mxCell>
                <mxCell id="68" value="" style="endArrow=none;html=1;rounded=0;exitX=0.5;exitY=0;exitDx=0;exitDy=0;entryX=0.499;entryY=1.06;entryDx=0;entryDy=0;entryPerimeter=0;" parent="1" source="120" target="69" edge="1">
                    <mxGeometry relative="1" as="geometry">
                        <mxPoint x="919.8999999999996" y="-40" as="sourcePoint"/>
                        <mxPoint x="990.6999999999998" y="-39.51999999999998" as="targetPoint"/>
                    </mxGeometry>
                </mxCell>
                <mxCell id="69" value="Owner_Fname" style="ellipse;whiteSpace=wrap;html=1;align=center;" parent="1" vertex="1">
                    <mxGeometry x="870" y="-110" width="100" height="40" as="geometry"/>
                </mxCell>
                <mxCell id="70" value="Owner_Lname" style="ellipse;whiteSpace=wrap;html=1;align=center;" parent="1" vertex="1">
                    <mxGeometry x="980" y="-70" width="100" height="40" as="geometry"/>
                </mxCell>
                <mxCell id="71" value="" style="endArrow=none;html=1;rounded=0;exitX=1;exitY=0.25;exitDx=0;exitDy=0;entryX=0;entryY=1;entryDx=0;entryDy=0;" parent="1" source="120" target="70" edge="1">
                    <mxGeometry relative="1" as="geometry">
                        <mxPoint x="940" y="-30" as="sourcePoint"/>
                        <mxPoint x="1090" y="20" as="targetPoint"/>
                    </mxGeometry>
                </mxCell>
                <mxCell id="76" value="" style="endArrow=none;html=1;rounded=0;entryX=0;entryY=0.5;entryDx=0;entryDy=0;exitX=1;exitY=0.25;exitDx=0;exitDy=0;" parent="1" source="137" target="115" edge="1">
                    <mxGeometry relative="1" as="geometry">
                        <mxPoint x="290" y="150" as="sourcePoint"/>
                        <mxPoint x="410" y="155.00000000000023" as="targetPoint"/>
                    </mxGeometry>
                </mxCell>
                <mxCell id="77" value="M" style="resizable=0;html=1;align=right;verticalAlign=bottom;" parent="76" connectable="0" vertex="1">
                    <mxGeometry x="1" relative="1" as="geometry">
                        <mxPoint x="-19" y="-5" as="offset"/>
                    </mxGeometry>
                </mxCell>
                <mxCell id="101" value="&lt;font style=&quot;font-size: 14px&quot;&gt;RegionName&lt;/font&gt;" style="ellipse;whiteSpace=wrap;html=1;align=center;fontSize=18;" parent="1" vertex="1">
                    <mxGeometry x="800" y="140" width="90" height="40" as="geometry"/>
                </mxCell>
                <mxCell id="102" value="&lt;font style=&quot;font-size: 14px&quot;&gt;RegionCode&lt;/font&gt;" style="ellipse;whiteSpace=wrap;html=1;align=center;fontSize=18;" parent="1" vertex="1">
                    <mxGeometry x="780" y="200" width="90" height="40" as="geometry"/>
                </mxCell>
                <mxCell id="103" value="" style="endArrow=none;html=1;rounded=0;shadow=0;exitX=0.845;exitY=1.077;exitDx=0;exitDy=0;exitPerimeter=0;" parent="1" source="5" target="102" edge="1">
                    <mxGeometry relative="1" as="geometry">
                        <mxPoint x="690" y="190" as="sourcePoint"/>
                        <mxPoint x="850" y="190" as="targetPoint"/>
                    </mxGeometry>
                </mxCell>
                <mxCell id="104" value="" style="endArrow=none;html=1;rounded=0;shadow=0;exitX=1;exitY=0.75;exitDx=0;exitDy=0;entryX=0.047;entryY=0.354;entryDx=0;entryDy=0;entryPerimeter=0;" parent="1" source="5" target="101" edge="1">
                    <mxGeometry relative="1" as="geometry">
                        <mxPoint x="730" y="130" as="sourcePoint"/>
                        <mxPoint x="890" y="130" as="targetPoint"/>
                    </mxGeometry>
                </mxCell>
                <mxCell id="105" value="&lt;font style=&quot;font-size: 14px&quot;&gt;BoothTypeCode&lt;/font&gt;" style="ellipse;whiteSpace=wrap;html=1;align=center;fontSize=18;" parent="1" vertex="1">
                    <mxGeometry x="85" y="660" width="110" height="40" as="geometry"/>
                </mxCell>
                <mxCell id="106" value="&lt;font style=&quot;font-size: 14px&quot;&gt;BoothTypeText&lt;/font&gt;" style="ellipse;whiteSpace=wrap;html=1;align=center;fontSize=18;" parent="1" vertex="1">
                    <mxGeometry x="85" y="590" width="100" height="40" as="geometry"/>
                </mxCell>
                <mxCell id="107" value="" style="endArrow=none;html=1;rounded=0;fontSize=14;entryX=0;entryY=0.5;entryDx=0;entryDy=0;" parent="1" source="105" edge="1">
                    <mxGeometry relative="1" as="geometry">
                        <mxPoint x="460" y="500" as="sourcePoint"/>
                        <mxPoint x="210.00000000000045" y="650" as="targetPoint"/>
                    </mxGeometry>
                </mxCell>
                <mxCell id="108" value="" style="endArrow=none;html=1;rounded=0;shadow=0;exitX=1;exitY=1;exitDx=0;exitDy=0;entryX=0;entryY=0;entryDx=0;entryDy=0;" parent="1" source="106" target="4" edge="1">
                    <mxGeometry relative="1" as="geometry">
                        <mxPoint x="120" y="560" as="sourcePoint"/>
                        <mxPoint x="280" y="560" as="targetPoint"/>
                    </mxGeometry>
                </mxCell>
                <mxCell id="115" value="Offer" style="rhombus;whiteSpace=wrap;html=1;" parent="1" vertex="1">
                    <mxGeometry x="445" y="100" width="80" height="80" as="geometry"/>
                </mxCell>
                <mxCell id="116" value="" style="endArrow=none;html=1;entryX=1;entryY=0.5;entryDx=0;entryDy=0;exitX=0;exitY=0.5;exitDx=0;exitDy=0;" parent="1" source="5" target="115" edge="1">
                    <mxGeometry width="50" height="50" relative="1" as="geometry">
                        <mxPoint x="270" y="260" as="sourcePoint"/>
                        <mxPoint x="320" y="210" as="targetPoint"/>
                    </mxGeometry>
                </mxCell>
                <mxCell id="117" value="N" style="text;html=1;align=center;verticalAlign=middle;resizable=0;points=[];autosize=1;strokeColor=none;fillColor=none;" parent="1" vertex="1">
                    <mxGeometry x="540" y="115" width="20" height="20" as="geometry"/>
                </mxCell>
                <mxCell id="119" value="Has" style="rhombus;whiteSpace=wrap;html=1;" parent="1" vertex="1">
                    <mxGeometry x="747" width="80" height="80" as="geometry"/>
                </mxCell>
                <mxCell id="120" value="Owner" style="rounded=0;whiteSpace=wrap;html=1;" parent="1" vertex="1">
                    <mxGeometry x="870" y="-30" width="100" height="40" as="geometry"/>
                </mxCell>
                <mxCell id="121" value="&lt;u&gt;&lt;font style=&quot;font-size: 14px&quot;&gt;SSN&lt;/font&gt;&lt;/u&gt;" style="ellipse;whiteSpace=wrap;html=1;align=center;" parent="1" vertex="1">
                    <mxGeometry x="720" y="-120" width="100" height="40" as="geometry"/>
                </mxCell>
                <mxCell id="137" value="&lt;font style=&quot;font-size: 18px&quot;&gt;Dessert&lt;/font&gt;" style="whiteSpace=wrap;html=1;align=center;" parent="1" vertex="1">
                    <mxGeometry x="200" y="150" width="100" height="40" as="geometry"/>
                </mxCell>
                <mxCell id="139" value="&lt;font style=&quot;font-size: 14px&quot;&gt;DessertPrice&lt;/font&gt;" style="ellipse;whiteSpace=wrap;html=1;align=center;fontSize=18;" parent="1" vertex="1">
                    <mxGeometry x="20" y="60" width="100" height="40" as="geometry"/>
                </mxCell>
                <mxCell id="140" value="&lt;font style=&quot;font-size: 14px&quot;&gt;DessertDescription&lt;/font&gt;" style="ellipse;whiteSpace=wrap;html=1;align=center;fontSize=18;" parent="1" vertex="1">
                    <mxGeometry x="80" y="20" width="140" height="40" as="geometry"/>
                </mxCell>
                <mxCell id="141" value="&lt;u&gt;&lt;font style=&quot;font-size: 14px&quot;&gt;&lt;b&gt;DessertCode&lt;/b&gt;&lt;/font&gt;&lt;/u&gt;" style="ellipse;whiteSpace=wrap;html=1;align=center;fontSize=18;" parent="1" vertex="1">
                    <mxGeometry x="270" y="80" width="90" height="40" as="geometry"/>
                </mxCell>
                <mxCell id="142" value="&lt;font style=&quot;font-size: 14px&quot;&gt;DessertName&lt;/font&gt;" style="ellipse;whiteSpace=wrap;html=1;align=center;fontSize=18;" parent="1" vertex="1">
                    <mxGeometry x="180" y="60" width="90" height="40" as="geometry"/>
                </mxCell>
                <mxCell id="143" value="" style="endArrow=none;html=1;rounded=0;fontSize=18;entryX=1;entryY=0.5;entryDx=0;entryDy=0;exitX=0;exitY=0.25;exitDx=0;exitDy=0;" parent="1" source="137" target="139" edge="1">
                    <mxGeometry relative="1" as="geometry">
                        <mxPoint x="340" y="350" as="sourcePoint"/>
                        <mxPoint x="500" y="350" as="targetPoint"/>
                    </mxGeometry>
                </mxCell>
                <mxCell id="144" value="" style="endArrow=none;html=1;rounded=0;fontSize=18;entryX=0.5;entryY=1;entryDx=0;entryDy=0;exitX=0.25;exitY=0;exitDx=0;exitDy=0;" parent="1" source="137" target="140" edge="1">
                    <mxGeometry relative="1" as="geometry">
                        <mxPoint x="340" y="350" as="sourcePoint"/>
                        <mxPoint x="500" y="350" as="targetPoint"/>
                    </mxGeometry>
                </mxCell>
                <mxCell id="145" value="" style="endArrow=none;html=1;rounded=0;fontSize=18;entryX=0.5;entryY=1;entryDx=0;entryDy=0;exitX=0.5;exitY=0;exitDx=0;exitDy=0;" parent="1" source="137" target="142" edge="1">
                    <mxGeometry relative="1" as="geometry">
                        <mxPoint x="340" y="350" as="sourcePoint"/>
                        <mxPoint x="500" y="350" as="targetPoint"/>
                    </mxGeometry>
                </mxCell>
                <mxCell id="146" value="" style="endArrow=none;html=1;rounded=0;fontSize=18;entryX=0.5;entryY=1;entryDx=0;entryDy=0;exitX=0.75;exitY=0;exitDx=0;exitDy=0;" parent="1" source="137" target="141" edge="1">
                    <mxGeometry relative="1" as="geometry">
                        <mxPoint x="340" y="350" as="sourcePoint"/>
                        <mxPoint x="500" y="350" as="targetPoint"/>
                    </mxGeometry>
                </mxCell>
                <mxCell id="147" value="&lt;font style=&quot;font-size: 14px&quot;&gt;DessertCategoryName&lt;/font&gt;" style="ellipse;whiteSpace=wrap;html=1;align=center;fontSize=18;" parent="1" vertex="1">
                    <mxGeometry x="75" y="240" width="150" height="40" as="geometry"/>
                </mxCell>
                <mxCell id="149" value="" style="endArrow=none;html=1;rounded=0;fontSize=18;entryX=1;entryY=0.5;entryDx=0;entryDy=0;exitX=0;exitY=0.5;exitDx=0;exitDy=0;" parent="1" source="137" target="166" edge="1">
                    <mxGeometry relative="1" as="geometry">
                        <mxPoint x="200" y="360" as="sourcePoint"/>
                        <mxPoint x="169.99999999999955" y="190" as="targetPoint"/>
                    </mxGeometry>
                </mxCell>
                <mxCell id="150" value="" style="endArrow=none;html=1;rounded=0;fontSize=18;exitX=0;exitY=1;exitDx=0;exitDy=0;entryX=0.933;entryY=0.25;entryDx=0;entryDy=0;entryPerimeter=0;" parent="1" source="137" target="147" edge="1">
                    <mxGeometry relative="1" as="geometry">
                        <mxPoint x="160" y="370" as="sourcePoint"/>
                        <mxPoint x="170" y="210" as="targetPoint"/>
                    </mxGeometry>
                </mxCell>
                <mxCell id="151" value="" style="endArrow=none;html=1;rounded=0;fontSize=18;entryX=1;entryY=0.5;entryDx=0;entryDy=0;" parent="1" target="162" edge="1">
                    <mxGeometry relative="1" as="geometry">
                        <mxPoint x="200" y="160" as="sourcePoint"/>
                        <mxPoint x="110" y="140" as="targetPoint"/>
                    </mxGeometry>
                </mxCell>
                <mxCell id="152" value="&lt;font style=&quot;font-size: 14px&quot;&gt;DrinkName&lt;br&gt;&lt;/font&gt;" style="ellipse;whiteSpace=wrap;html=1;align=center;fontSize=18;" vertex="1" parent="1">
                    <mxGeometry x="-220" y="50" width="100" height="50" as="geometry"/>
                </mxCell>
                <mxCell id="153" value="" style="endArrow=none;html=1;rounded=0;fontSize=18;entryX=0.5;entryY=1;entryDx=0;entryDy=0;exitX=0.25;exitY=0;exitDx=0;exitDy=0;startArrow=none;" edge="1" parent="1" source="163" target="152">
                    <mxGeometry relative="1" as="geometry">
                        <mxPoint x="-140" y="125" as="sourcePoint"/>
                        <mxPoint x="160" y="130" as="targetPoint"/>
                    </mxGeometry>
                </mxCell>
                <mxCell id="157" value="" style="endArrow=none;html=1;rounded=0;entryX=0;entryY=0.5;entryDx=0;entryDy=0;exitX=1;exitY=0.5;exitDx=0;exitDy=0;" edge="1" parent="1" source="160" target="163">
                    <mxGeometry relative="1" as="geometry">
                        <mxPoint x="-247.5663548304899" y="114.11074365157492" as="sourcePoint"/>
                        <mxPoint x="-170" y="145" as="targetPoint"/>
                    </mxGeometry>
                </mxCell>
                <mxCell id="158" value="N" style="resizable=0;html=1;align=right;verticalAlign=bottom;" connectable="0" vertex="1" parent="1">
                    <mxGeometry x="-30" y="140" as="geometry"/>
                </mxCell>
                <mxCell id="159" value="1" style="resizable=0;html=1;align=right;verticalAlign=bottom;" connectable="0" vertex="1" parent="1">
                    <mxGeometry x="119.50664227399193" y="139.79761390873296" as="geometry"/>
                </mxCell>
                <mxCell id="160" value="&lt;span style=&quot;border-bottom: 1px dotted&quot;&gt;&lt;u&gt;DrinkID&lt;/u&gt;&lt;/span&gt;" style="ellipse;whiteSpace=wrap;html=1;align=center;" vertex="1" parent="1">
                    <mxGeometry x="-360" y="90" width="100" height="40" as="geometry"/>
                </mxCell>
                <mxCell id="161" value="1" style="resizable=0;html=1;align=right;verticalAlign=bottom;" connectable="0" vertex="1" parent="1">
                    <mxGeometry x="69.99664227399194" y="124.99761390873296" as="geometry">
                        <mxPoint x="52" y="86" as="offset"/>
                    </mxGeometry>
                </mxCell>
                <mxCell id="162" value="Has" style="rhombus;whiteSpace=wrap;html=1;fontSize=14;" vertex="1" parent="1">
                    <mxGeometry x="20" y="99.80000000000001" width="80" height="80" as="geometry"/>
                </mxCell>
                <mxCell id="163" value="Drink" style="rounded=0;whiteSpace=wrap;html=1;fontSize=14;" vertex="1" parent="1">
                    <mxGeometry x="-160" y="115" width="120" height="60" as="geometry"/>
                </mxCell>
                <mxCell id="164" value="" style="shape=link;html=1;rounded=0;fontSize=14;exitX=1;exitY=0.5;exitDx=0;exitDy=0;entryX=0;entryY=0.5;entryDx=0;entryDy=0;" edge="1" parent="1" source="163" target="162">
                    <mxGeometry relative="1" as="geometry">
                        <mxPoint x="200" y="360" as="sourcePoint"/>
                        <mxPoint x="360" y="360" as="targetPoint"/>
                    </mxGeometry>
                </mxCell>
                <mxCell id="166" value="Has" style="rhombus;whiteSpace=wrap;html=1;fontSize=14;" vertex="1" parent="1">
                    <mxGeometry x="30" y="180" width="80" height="80" as="geometry"/>
                </mxCell>
                <mxCell id="167" value="" style="shape=link;html=1;rounded=0;fontSize=14;entryX=0;entryY=0.5;entryDx=0;entryDy=0;exitX=1;exitY=0.5;exitDx=0;exitDy=0;" edge="1" parent="1" source="169" target="166">
                    <mxGeometry relative="1" as="geometry">
                        <mxPoint x="-50" y="240" as="sourcePoint"/>
                        <mxPoint x="180" y="170" as="targetPoint"/>
                    </mxGeometry>
                </mxCell>
                <mxCell id="168" value="N" style="resizable=0;html=1;align=right;verticalAlign=bottom;fontSize=14;" connectable="0" vertex="1" parent="167">
                    <mxGeometry x="1" relative="1" as="geometry">
                        <mxPoint x="-60" y="10" as="offset"/>
                    </mxGeometry>
                </mxCell>
                <mxCell id="169" value="Topping" style="rounded=0;whiteSpace=wrap;html=1;fontSize=14;" vertex="1" parent="1">
                    <mxGeometry x="-170" y="220" width="120" height="60" as="geometry"/>
                </mxCell>
                <mxCell id="170" value="" style="endArrow=none;html=1;rounded=0;entryX=0;entryY=0.5;entryDx=0;entryDy=0;" edge="1" parent="1" target="169">
                    <mxGeometry relative="1" as="geometry">
                        <mxPoint x="-301.2032242917321" y="240.11624473219945" as="sourcePoint"/>
                        <mxPoint x="-232.5" y="262.5" as="targetPoint"/>
                    </mxGeometry>
                </mxCell>
                <mxCell id="171" value="&lt;font style=&quot;font-size: 14px&quot;&gt;ToppingName&lt;br&gt;&lt;/font&gt;" style="ellipse;whiteSpace=wrap;html=1;align=center;fontSize=18;" vertex="1" parent="1">
                    <mxGeometry x="-290" y="177.5" width="100" height="50" as="geometry"/>
                </mxCell>
                <mxCell id="172" value="" style="endArrow=none;html=1;rounded=0;shadow=0;exitX=0.79;exitY=0.936;exitDx=0;exitDy=0;exitPerimeter=0;entryX=0;entryY=0;entryDx=0;entryDy=0;" edge="1" parent="1" source="171" target="169">
                    <mxGeometry relative="1" as="geometry">
                        <mxPoint x="-590" y="282.5" as="sourcePoint"/>
                        <mxPoint x="-177.5" y="262.5" as="targetPoint"/>
                    </mxGeometry>
                </mxCell>
                <mxCell id="173" value="&lt;span style=&quot;border-bottom: 1px dotted&quot;&gt;&lt;u&gt;ToppingID&lt;/u&gt;&lt;/span&gt;" style="ellipse;whiteSpace=wrap;html=1;align=center;" vertex="1" parent="1">
                    <mxGeometry x="-390" y="207.5" width="100" height="40" as="geometry"/>
                </mxCell>
                <mxCell id="174" value="&lt;span&gt;DessertOfferedDateStart&lt;/span&gt;" style="ellipse;whiteSpace=wrap;html=1;fontSize=14;" vertex="1" parent="1">
                    <mxGeometry x="272" y="-10" width="156" height="60" as="geometry"/>
                </mxCell>
            </root>
        </mxGraphModel>
    </diagram>
</mxfile>